<svg width="96" height="26" viewBox="0 0 96 26" fill="none" xmlns="http://www.w3.org/2000/svg">
<path d="M0.6 16.54C0.6 14.76 0.9 13.22 1.5 11.92C2.12 10.6 2.96 9.6 4.02 8.92C5.08 8.22 6.27 7.87 7.59 7.87C8.69 7.87 9.64 8.1 10.44 8.56C11.24 9 11.85 9.61 12.27 10.39V8.08H18.9V25H12.27V22.69C11.85 23.47 11.24 24.09 10.44 24.55C9.64 24.99 8.69 25.21 7.59 25.21C6.27 25.21 5.08 24.87 4.02 24.19C2.96 23.49 2.12 22.49 1.5 21.19C0.9 19.87 0.6 18.32 0.6 16.54ZM12.27 16.54C12.27 15.64 12.04 14.94 11.58 14.44C11.12 13.94 10.53 13.69 9.81 13.69C9.09 13.69 8.5 13.94 8.04 14.44C7.58 14.94 7.35 15.64 7.35 16.54C7.35 17.44 7.58 18.14 8.04 18.64C8.5 19.14 9.09 19.39 9.81 19.39C10.53 19.39 11.12 19.14 11.58 18.64C12.04 18.14 12.27 17.44 12.27 16.54ZM25.2506 6.73C24.0906 6.73 23.1606 6.42 22.4606 5.8C21.7606 5.18 21.4106 4.4 21.4106 3.46C21.4106 2.5 21.7606 1.71 22.4606 1.09C23.1606 0.449998 24.0906 0.129998 25.2506 0.129998C26.3906 0.129998 27.3106 0.449998 28.0106 1.09C28.7106 1.71 29.0606 2.5 29.0606 3.46C29.0606 4.4 28.7106 5.18 28.0106 5.8C27.3106 6.42 26.3906 6.73 25.2506 6.73ZM28.5506 8.08V25H21.8906V8.08H28.5506ZM38.2186 11.2C38.8986 10.22 39.7286 9.44 40.7086 8.86C41.6886 8.26 42.7086 7.96 43.7686 7.96V15.07H41.8786C40.6186 15.07 39.6886 15.29 39.0886 15.73C38.5086 16.17 38.2186 16.95 38.2186 18.07V25H31.5586V8.08H38.2186V11.2ZM44.6625 16.54C44.6625 14.78 45.0225 13.25 45.7425 11.95C46.4825 10.63 47.5025 9.62 48.8025 8.92C50.1225 8.22 51.6225 7.87 53.3025 7.87C55.5025 7.87 57.3525 8.49 58.8525 9.73C60.3725 10.97 61.3325 12.69 61.7325 14.89H54.6825C54.4225 14.01 53.9125 13.57 53.1525 13.57C52.6125 13.57 52.1825 13.82 51.8625 14.32C51.5625 14.82 51.4125 15.56 51.4125 16.54C51.4125 17.52 51.5625 18.26 51.8625 18.76C52.1825 19.26 52.6125 19.51 53.1525 19.51C53.9125 19.51 54.4225 19.07 54.6825 18.19H61.7325C61.3325 20.39 60.3725 22.11 58.8525 23.35C57.3525 24.59 55.5025 25.21 53.3025 25.21C51.6225 25.21 50.1225 24.86 48.8025 24.16C47.5025 23.46 46.4825 22.46 45.7425 21.16C45.0225 19.84 44.6625 18.3 44.6625 16.54ZM81.7538 8.08V25H75.0938V22.42C74.5738 23.22 73.8738 23.87 72.9938 24.37C72.1338 24.87 71.1038 25.12 69.9038 25.12C67.9638 25.12 66.4438 24.47 65.3438 23.17C64.2638 21.87 63.7238 20.11 63.7238 17.89V8.08H70.3538V17.05C70.3538 17.85 70.5638 18.49 70.9838 18.97C71.4238 19.43 72.0038 19.66 72.7238 19.66C73.4638 19.66 74.0438 19.43 74.4638 18.97C74.8838 18.49 75.0938 17.85 75.0938 17.05V8.08H81.7538ZM95.2917 19.33V25H92.7717C88.1317 25 85.8117 22.69 85.8117 18.07V13.63H83.7117V8.08H85.8117V4H92.4717V8.08H95.2317V13.63H92.4717V18.19C92.4717 18.59 92.5617 18.88 92.7417 19.06C92.9417 19.24 93.2617 19.33 93.7017 19.33H95.2917Z" fill="#F1C086"/>
</svg>
